<?xml version="1.0" standalone="no"?>
<!DOCTYPE svg PUBLIC "-//W3C//DTD SVG 1.1//EN" "http://www.w3.org/Graphics/SVG/1.1/DTD/svg11.dtd" >
<svg xmlns="http://www.w3.org/2000/svg" xmlns:xlink="http://www.w3.org/1999/xlink" version="1.1">
<metadata>
Created by FontForge 20170731 at Sun Sep 10 02:24:19 2023
 By Aleksey,,,
</metadata>
<defs>
<font id="Pictura-Regular" horiz-adv-x="250" >
  <font-face 
    font-family="Pictura"
    font-weight="400"
    font-stretch="normal"
    units-per-em="1000"
    panose-1="2 0 5 3 0 0 0 0 0 0"
    ascent="800"
    descent="-200"
    x-height="707"
    bbox="33 -131.364 794 800"
    underline-thickness="50"
    underline-position="-150"
    unicode-range="U+000D-00A0"
  />
<missing-glyph horiz-adv-x="364" 
d="M33 0v666h265v-666h-265zM66 33h199v600h-199v-600z" />
    <glyph glyph-name=".notdef" horiz-adv-x="364" 
d="M33 0v666h265v-666h-265zM66 33h199v600h-199v-600z" />
    <glyph glyph-name=".null" 
 />
    <glyph glyph-name=".null" 
 />
    <glyph glyph-name="nonmarkingreturn" horiz-adv-x="333" 
 />
    <glyph glyph-name="CR" unicode="&#xd;" 
 />
    <glyph glyph-name="space" unicode=" " 
 />
    <glyph glyph-name="exclam" unicode="!" horiz-adv-x="502" 
d="M77 696q3 11 16 11q10 0 11.5 -2.5t-0.5 -18.5q-4 -30 -14 -156.5t-13 -189.5l-4 -80l15 -2q9 -1 12.5 -4.5t5.5 -14.5q4 -18 11 -30q6 -12 -1 -20q-7 -7 -9 -7q-7 0 -20 27l-13 27l3 -78q4 -83 9 -152q4 -57 4 -84q0 -16 -2 -20t-9 -4h-1q-8 0 -11 4.5t-5 22.5
q-12 106 -12 308q0 55 1 80q2 91 11 223t15 160zM245 472q11 3 13 1t2 -13q0 -16 -7 -16q-10 0 -30 -10q-18 -8 -20 -8q-3 0 -8 6q-7 9 -7 12q0 2 21.5 13t35.5 15zM332 444q3 7 9 7q9 0 35 -27q16 -17 16 -22q0 -4 -3 -7q-5 -7 -8 -7q-4 0 -29 22q-22 21 -22 27q0 1 2 7z
M109 372q16 23 20 23q3 0 9 -6q7 -7 7 -11q0 -3 -12 -21q-16 -22 -18 -27t-13.5 -1.5t-11.5 9.5t19 34zM417 327q8 4 11 4q5 0 11.5 -22t6.5 -39q0 -10 -2.5 -13t-12.5 -3q-11 0 -13 4t-4 30q-1 8 -1 20q0 16 4 19zM387 187q7 10 18 -3q3 -3 3 -7q0 -15 -40 -35l-24 -12
l-5 13q-3 6 -3 9q0 6 22 17q26 13 29 18zM178 135q0 14 13 14q6 0 10 -1q5 -1 20 -3.5t18 -2.5q14 -2 17.5 -4.5t3.5 -10.5t-3 -10.5t-15 -2.5q-23 0 -43.5 6.5t-20.5 14.5z" />
    <glyph glyph-name="quotedbl" unicode="&#x22;" horiz-adv-x="480" 
d="M293 771q11 8 24 8q26 0 26 -28q0 -33 -24 -33q-13 0 -24 10q-13 11 -13 23t11 20zM143 751q10 8 20 8t20.5 -9.5t10.5 -18.5q0 -13 -9 -23.5t-19 -10.5q-15 0 -25 10t-10 23q0 14 12 21zM122 605q235 32 242 32t7 -28q0 -5 -2 -7q-4 -3 -117 -18t-126 -15h-1q-7 7 -7 27
q0 8 4 9zM225 462q11 3 13 1t2 -14q0 -15 -8 -15q-7 0 -29 -11q-18 -8 -20 -8q-3 0 -8 7q-7 9 -7 12q0 2 21.5 13t35.5 15zM312 434q3 7 9 7q8 0 34 -27q17 -17 17 -23q0 -3 -3 -6q-5 -7 -9 -7t-29 22q-21 18 -21 26q0 2 2 8zM88 361q16 23 20 23q3 0 9 -6q7 -7 7 -10
t-12 -21q-14 -19 -17 -27q-2 -5 -13.5 -2t-11.5 9q0 7 18 34zM396 316q8 4 10 4q8 0 14 -25q6 -27 6 -37q0 -15 -15 -15q-11 0 -13.5 5t-4.5 30q-1 8 -1 20q0 15 4 18zM57 230q-3 14 -1.5 16.5t12.5 0.5q9 -1 12.5 -4.5t5.5 -14.5q4 -19 10 -29q6 -13 0 -20q-8 -8 -11 -8
q-5 0 -15 21t-13 38zM366 176q7 10 18 -2q3 -3 3 -7q0 -15 -39 -35l-24 -12l-6 12q-3 6 -3 9q0 6 23 17q24 12 28 18zM161 137q4 4 20 1q4 -1 10 -2t14.5 -2t12.5 -2q14 -2 18 -5.5t4 -11.5q0 -11 -8 -11l-24 2q-37 4 -42 6q-7 3 -8.5 11.5t3.5 13.5z" />
    <glyph glyph-name="quotedbl" unicode="&#x201e;" horiz-adv-x="480" 
d="M293 771q11 8 24 8q26 0 26 -28q0 -33 -24 -33q-13 0 -24 10q-13 11 -13 23t11 20zM143 751q10 8 20 8t20.5 -9.5t10.5 -18.5q0 -13 -9 -23.5t-19 -10.5q-15 0 -25 10t-10 23q0 14 12 21zM122 605q235 32 242 32t7 -28q0 -5 -2 -7q-4 -3 -117 -18t-126 -15h-1q-7 7 -7 27
q0 8 4 9zM225 462q11 3 13 1t2 -14q0 -15 -8 -15q-7 0 -29 -11q-18 -8 -20 -8q-3 0 -8 7q-7 9 -7 12q0 2 21.5 13t35.5 15zM312 434q3 7 9 7q8 0 34 -27q17 -17 17 -23q0 -3 -3 -6q-5 -7 -9 -7t-29 22q-21 18 -21 26q0 2 2 8zM88 361q16 23 20 23q3 0 9 -6q7 -7 7 -10
t-12 -21q-14 -19 -17 -27q-2 -5 -13.5 -2t-11.5 9q0 7 18 34zM396 316q8 4 10 4q8 0 14 -25q6 -27 6 -37q0 -15 -15 -15q-11 0 -13.5 5t-4.5 30q-1 8 -1 20q0 15 4 18zM57 230q-3 14 -1.5 16.5t12.5 0.5q9 -1 12.5 -4.5t5.5 -14.5q4 -19 10 -29q6 -13 0 -20q-8 -8 -11 -8
q-5 0 -15 21t-13 38zM366 176q7 10 18 -2q3 -3 3 -7q0 -15 -39 -35l-24 -12l-6 12q-3 6 -3 9q0 6 23 17q24 12 28 18zM161 137q4 4 20 1q4 -1 10 -2t14.5 -2t12.5 -2q14 -2 18 -5.5t4 -11.5q0 -11 -8 -11l-24 2q-37 4 -42 6q-7 3 -8.5 11.5t3.5 13.5z" />
    <glyph glyph-name="quotedbl" unicode="&#x201d;" horiz-adv-x="480" 
d="M293 771q11 8 24 8q26 0 26 -28q0 -33 -24 -33q-13 0 -24 10q-13 11 -13 23t11 20zM143 751q10 8 20 8t20.5 -9.5t10.5 -18.5q0 -13 -9 -23.5t-19 -10.5q-15 0 -25 10t-10 23q0 14 12 21zM122 605q235 32 242 32t7 -28q0 -5 -2 -7q-4 -3 -117 -18t-126 -15h-1q-7 7 -7 27
q0 8 4 9zM225 462q11 3 13 1t2 -14q0 -15 -8 -15q-7 0 -29 -11q-18 -8 -20 -8q-3 0 -8 7q-7 9 -7 12q0 2 21.5 13t35.5 15zM312 434q3 7 9 7q8 0 34 -27q17 -17 17 -23q0 -3 -3 -6q-5 -7 -9 -7t-29 22q-21 18 -21 26q0 2 2 8zM88 361q16 23 20 23q3 0 9 -6q7 -7 7 -10
t-12 -21q-14 -19 -17 -27q-2 -5 -13.5 -2t-11.5 9q0 7 18 34zM396 316q8 4 10 4q8 0 14 -25q6 -27 6 -37q0 -15 -15 -15q-11 0 -13.5 5t-4.5 30q-1 8 -1 20q0 15 4 18zM57 230q-3 14 -1.5 16.5t12.5 0.5q9 -1 12.5 -4.5t5.5 -14.5q4 -19 10 -29q6 -13 0 -20q-8 -8 -11 -8
q-5 0 -15 21t-13 38zM366 176q7 10 18 -2q3 -3 3 -7q0 -15 -39 -35l-24 -12l-6 12q-3 6 -3 9q0 6 23 17q24 12 28 18zM161 137q4 4 20 1q4 -1 10 -2t14.5 -2t12.5 -2q14 -2 18 -5.5t4 -11.5q0 -11 -8 -11l-24 2q-37 4 -42 6q-7 3 -8.5 11.5t3.5 13.5z" />
    <glyph glyph-name="quotedbl" unicode="&#x201c;" horiz-adv-x="480" 
d="M293 771q11 8 24 8q26 0 26 -28q0 -33 -24 -33q-13 0 -24 10q-13 11 -13 23t11 20zM143 751q10 8 20 8t20.5 -9.5t10.5 -18.5q0 -13 -9 -23.5t-19 -10.5q-15 0 -25 10t-10 23q0 14 12 21zM122 605q235 32 242 32t7 -28q0 -5 -2 -7q-4 -3 -117 -18t-126 -15h-1q-7 7 -7 27
q0 8 4 9zM225 462q11 3 13 1t2 -14q0 -15 -8 -15q-7 0 -29 -11q-18 -8 -20 -8q-3 0 -8 7q-7 9 -7 12q0 2 21.5 13t35.5 15zM312 434q3 7 9 7q8 0 34 -27q17 -17 17 -23q0 -3 -3 -6q-5 -7 -9 -7t-29 22q-21 18 -21 26q0 2 2 8zM88 361q16 23 20 23q3 0 9 -6q7 -7 7 -10
t-12 -21q-14 -19 -17 -27q-2 -5 -13.5 -2t-11.5 9q0 7 18 34zM396 316q8 4 10 4q8 0 14 -25q6 -27 6 -37q0 -15 -15 -15q-11 0 -13.5 5t-4.5 30q-1 8 -1 20q0 15 4 18zM57 230q-3 14 -1.5 16.5t12.5 0.5q9 -1 12.5 -4.5t5.5 -14.5q4 -19 10 -29q6 -13 0 -20q-8 -8 -11 -8
q-5 0 -15 21t-13 38zM366 176q7 10 18 -2q3 -3 3 -7q0 -15 -39 -35l-24 -12l-6 12q-3 6 -3 9q0 6 23 17q24 12 28 18zM161 137q4 4 20 1q4 -1 10 -2t14.5 -2t12.5 -2q14 -2 18 -5.5t4 -11.5q0 -11 -8 -11l-24 2q-37 4 -42 6q-7 3 -8.5 11.5t3.5 13.5z" />
    <glyph glyph-name="quotesingle" unicode="'" horiz-adv-x="479" 
d="M187 738q0 7 14.5 19t22.5 12q10 0 20 -10.5t10 -19.5q0 -11 -9 -21.5t-19 -10.5t-24.5 11.5t-14.5 19.5zM357 599q-3 0 -116.5 -15.5t-115.5 -15.5q-4 0 -9.5 10t-5.5 18q0 4 2 6q1 1 120 18t127 17q4 0 4 -17q0 -21 -6 -21zM224 462q10 3 12.5 1t2.5 -14q0 -15 -8 -15
q-7 0 -29 -11q-18 -8 -20 -8q-3 0 -8 7q-7 9 -7 12q0 2 21.5 13t35.5 15zM311 434q3 7 9 7q8 0 34 -27q17 -17 17 -23q0 -3 -3 -6q-5 -7 -9 -7t-29 22q-21 18 -21 26q0 2 2 8zM87 361q16 23 20 23q3 0 9 -6q7 -7 7 -10t-12 -21q-14 -19 -17 -27q-2 -5 -13.5 -2t-11.5 9
q0 7 18 34zM395 316q10 5 12 5q5 0 11.5 -22.5t6.5 -39.5q0 -10 -2.5 -13t-12.5 -3q-11 0 -13.5 5t-4.5 30q-1 8 -1 20q0 15 4 18zM56 230q-3 14 -1.5 16.5t12.5 0.5q9 -1 12.5 -4.5t5.5 -14.5q4 -19 10 -29q6 -13 0 -20q-8 -8 -11 -8q-5 0 -15 21t-13 38zM365 176
q7 10 18 -2q3 -3 3 -7q0 -15 -39 -35l-24 -12l-6 12q-3 6 -3 9q0 6 23 17q24 12 28 18zM160 137q4 4 20 1q4 -1 10 -2t14.5 -2t12.5 -2q14 -2 18 -5.5t4 -11.5q0 -11 -8 -11l-24 2q-37 4 -42 6q-7 3 -8.5 11.5t3.5 13.5z" />
    <glyph glyph-name="quotesingle" unicode="&#x201a;" horiz-adv-x="479" 
d="M187 738q0 7 14.5 19t22.5 12q10 0 20 -10.5t10 -19.5q0 -11 -9 -21.5t-19 -10.5t-24.5 11.5t-14.5 19.5zM357 599q-3 0 -116.5 -15.5t-115.5 -15.5q-4 0 -9.5 10t-5.5 18q0 4 2 6q1 1 120 18t127 17q4 0 4 -17q0 -21 -6 -21zM224 462q10 3 12.5 1t2.5 -14q0 -15 -8 -15
q-7 0 -29 -11q-18 -8 -20 -8q-3 0 -8 7q-7 9 -7 12q0 2 21.5 13t35.5 15zM311 434q3 7 9 7q8 0 34 -27q17 -17 17 -23q0 -3 -3 -6q-5 -7 -9 -7t-29 22q-21 18 -21 26q0 2 2 8zM87 361q16 23 20 23q3 0 9 -6q7 -7 7 -10t-12 -21q-14 -19 -17 -27q-2 -5 -13.5 -2t-11.5 9
q0 7 18 34zM395 316q10 5 12 5q5 0 11.5 -22.5t6.5 -39.5q0 -10 -2.5 -13t-12.5 -3q-11 0 -13.5 5t-4.5 30q-1 8 -1 20q0 15 4 18zM56 230q-3 14 -1.5 16.5t12.5 0.5q9 -1 12.5 -4.5t5.5 -14.5q4 -19 10 -29q6 -13 0 -20q-8 -8 -11 -8q-5 0 -15 21t-13 38zM365 176
q7 10 18 -2q3 -3 3 -7q0 -15 -39 -35l-24 -12l-6 12q-3 6 -3 9q0 6 23 17q24 12 28 18zM160 137q4 4 20 1q4 -1 10 -2t14.5 -2t12.5 -2q14 -2 18 -5.5t4 -11.5q0 -11 -8 -11l-24 2q-37 4 -42 6q-7 3 -8.5 11.5t3.5 13.5z" />
    <glyph glyph-name="quotesingle" unicode="&#x2019;" horiz-adv-x="479" 
d="M187 738q0 7 14.5 19t22.5 12q10 0 20 -10.5t10 -19.5q0 -11 -9 -21.5t-19 -10.5t-24.5 11.5t-14.5 19.5zM357 599q-3 0 -116.5 -15.5t-115.5 -15.5q-4 0 -9.5 10t-5.5 18q0 4 2 6q1 1 120 18t127 17q4 0 4 -17q0 -21 -6 -21zM224 462q10 3 12.5 1t2.5 -14q0 -15 -8 -15
q-7 0 -29 -11q-18 -8 -20 -8q-3 0 -8 7q-7 9 -7 12q0 2 21.5 13t35.5 15zM311 434q3 7 9 7q8 0 34 -27q17 -17 17 -23q0 -3 -3 -6q-5 -7 -9 -7t-29 22q-21 18 -21 26q0 2 2 8zM87 361q16 23 20 23q3 0 9 -6q7 -7 7 -10t-12 -21q-14 -19 -17 -27q-2 -5 -13.5 -2t-11.5 9
q0 7 18 34zM395 316q10 5 12 5q5 0 11.5 -22.5t6.5 -39.5q0 -10 -2.5 -13t-12.5 -3q-11 0 -13.5 5t-4.5 30q-1 8 -1 20q0 15 4 18zM56 230q-3 14 -1.5 16.5t12.5 0.5q9 -1 12.5 -4.5t5.5 -14.5q4 -19 10 -29q6 -13 0 -20q-8 -8 -11 -8q-5 0 -15 21t-13 38zM365 176
q7 10 18 -2q3 -3 3 -7q0 -15 -39 -35l-24 -12l-6 12q-3 6 -3 9q0 6 23 17q24 12 28 18zM160 137q4 4 20 1q4 -1 10 -2t14.5 -2t12.5 -2q14 -2 18 -5.5t4 -11.5q0 -11 -8 -11l-24 2q-37 4 -42 6q-7 3 -8.5 11.5t3.5 13.5z" />
    <glyph glyph-name="quotesingle" unicode="&#x2018;" horiz-adv-x="479" 
d="M187 738q0 7 14.5 19t22.5 12q10 0 20 -10.5t10 -19.5q0 -11 -9 -21.5t-19 -10.5t-24.5 11.5t-14.5 19.5zM357 599q-3 0 -116.5 -15.5t-115.5 -15.5q-4 0 -9.5 10t-5.5 18q0 4 2 6q1 1 120 18t127 17q4 0 4 -17q0 -21 -6 -21zM224 462q10 3 12.5 1t2.5 -14q0 -15 -8 -15
q-7 0 -29 -11q-18 -8 -20 -8q-3 0 -8 7q-7 9 -7 12q0 2 21.5 13t35.5 15zM311 434q3 7 9 7q8 0 34 -27q17 -17 17 -23q0 -3 -3 -6q-5 -7 -9 -7t-29 22q-21 18 -21 26q0 2 2 8zM87 361q16 23 20 23q3 0 9 -6q7 -7 7 -10t-12 -21q-14 -19 -17 -27q-2 -5 -13.5 -2t-11.5 9
q0 7 18 34zM395 316q10 5 12 5q5 0 11.5 -22.5t6.5 -39.5q0 -10 -2.5 -13t-12.5 -3q-11 0 -13.5 5t-4.5 30q-1 8 -1 20q0 15 4 18zM56 230q-3 14 -1.5 16.5t12.5 0.5q9 -1 12.5 -4.5t5.5 -14.5q4 -19 10 -29q6 -13 0 -20q-8 -8 -11 -8q-5 0 -15 21t-13 38zM365 176
q7 10 18 -2q3 -3 3 -7q0 -15 -39 -35l-24 -12l-6 12q-3 6 -3 9q0 6 23 17q24 12 28 18zM160 137q4 4 20 1q4 -1 10 -2t14.5 -2t12.5 -2q14 -2 18 -5.5t4 -11.5q0 -11 -8 -11l-24 2q-37 4 -42 6q-7 3 -8.5 11.5t3.5 13.5z" />
    <glyph glyph-name="comma" unicode="," horiz-adv-x="480" 
d="M248 689q84 12 100 12h3q14 -1 17 -3.5t5 -13.5l2 -16l-118 -16q-121 -17 -126 -17q-10 0 -10 18q0 13 3.5 16t19.5 5q4 1 41 6t63 9zM225 462q11 3 13 1t2 -14q0 -15 -8 -15q-7 0 -29 -11q-18 -8 -20 -8q-3 0 -8 7q-7 9 -7 12q0 2 21.5 13t35.5 15zM312 434q3 7 9 7
q8 0 34 -27q17 -17 17 -23q0 -3 -3 -6q-5 -7 -9 -7t-29 22q-21 18 -21 26q0 2 2 8zM88 361q16 23 20 23q3 0 9 -6q7 -7 7 -10t-12 -21q-14 -19 -17 -27q-2 -5 -13.5 -2t-11.5 9q0 7 18 34zM396 316q10 5 12 5q5 0 11.5 -22.5t6.5 -39.5q0 -10 -2.5 -13t-12.5 -3
q-11 0 -13.5 5t-4.5 30q-1 8 -1 20q0 15 4 18zM57 230q-3 14 -1.5 16.5t12.5 0.5q9 -1 12.5 -4.5t5.5 -14.5q4 -19 10 -29q6 -13 0 -20q-8 -8 -11 -8q-5 0 -15 21t-13 38zM366 176q7 10 18 -2q3 -3 3 -7q0 -15 -39 -35l-24 -12l-6 12q-3 6 -3 9q0 6 23 17q24 12 28 18z
M161 137q4 4 20 1q4 -1 10 -2t14.5 -2t12.5 -2q14 -2 18 -5.5t4 -11.5q0 -11 -8 -11l-24 2q-37 4 -42 6q-7 3 -8.5 11.5t3.5 13.5z" />
    <glyph glyph-name="period" unicode="." horiz-adv-x="481" 
d="M217 689q14 12 20 12q7 0 18 -11q10 -11 10 -24q0 -12 -8 -20.5t-20 -8.5q-9 0 -16 4q-17 8 -17 23q0 13 13 25zM225 467q11 3 13 1t2 -13q0 -16 -8 -16q-7 0 -29 -11q-18 -8 -20 -8q-3 0 -8 7q-7 9 -7 12q0 2 21.5 13t35.5 15zM312 439q3 7 9 7q8 0 34 -27
q17 -17 17 -23q0 -3 -3 -6q-5 -7 -9 -7t-29 22q-21 18 -21 26q0 2 2 8zM103 387q5 6 14 -3q7 -7 7 -10q0 -5 -10 -19q-13 -20 -16 -30q-6 -15 -22 -5q-8 5 -2 17q15 29 29 50zM396 322q8 4 12 4q5 0 11.5 -22.5t6.5 -39.5q0 -10 -2.5 -13t-12.5 -3q-11 0 -13.5 5t-4.5 30
q-1 8 -1 20q0 16 4 19zM57 230q-3 14 -1.5 16.5t12.5 0.5q9 -1 12.5 -4.5t5.5 -14.5q4 -19 10 -29q6 -13 0 -20q-8 -8 -11 -8q-5 0 -15 21t-13 38zM366 181q7 10 18 -2q3 -3 3 -7q0 -15 -39 -35l-24 -12l-6 13q-3 6 -3 8q0 6 23 17q24 12 28 18zM164 139q7 7 17 4q3 0 8 -1
t13.5 -2t13.5 -2q15 -2 19.5 -5.5t4.5 -11.5q0 -7 -2 -9t-12 -2q-14 0 -26 1q-10 0 -20 1t-16 2h-5q-3 1 -1 11t6 14z" />
    <glyph glyph-name="colon" unicode=":" horiz-adv-x="476" 
d="M308 689q11 8 25 8t21 -10q5 -10 5 -19q0 -15 -9 -24q-7 -8 -17 -8t-23 10q-13 11 -13 23t11 20zM155 664q12 12 25 12q14 0 24 -16q8 -15 0 -29q-9 -16 -24 -16q-13 0 -25 12q-13 13 -13 18q0 6 13 19zM220 467q10 3 12.5 1t2.5 -13q0 -16 -8 -16q-7 0 -29 -11
q-18 -8 -20 -8q-3 0 -8 7q-7 9 -7 12q0 2 21.5 13t35.5 15zM307 439q3 7 9 7q8 0 34 -27q17 -17 17 -23q0 -3 -3 -6q-5 -7 -9 -7t-29 22q-21 18 -21 26q0 2 2 8zM83 366q17 24 21 24q2 0 8 -6q7 -7 7 -11q0 -3 -12 -21q-14 -19 -17 -27q-2 -5 -13.5 -2t-11.5 9q0 7 18 34z
M391 322q8 4 12 4q5 0 11.5 -22.5t6.5 -39.5q0 -10 -2.5 -13t-12.5 -3q-11 0 -13.5 5t-4.5 30q-1 8 -1 20q0 16 4 19zM52 235q-3 14 -1.5 17t12.5 1q9 -1 12.5 -4.5t5.5 -14.5q5 -20 10 -30q6 -13 0 -20q-8 -8 -11 -8q-5 0 -15 21t-13 38zM361 181q7 10 18 -2q3 -3 3 -7
q0 -15 -39 -35l-24 -12l-6 13q-3 6 -3 8q0 6 23 17q24 12 28 18zM156 142q4 4 20 1q4 -1 10 -2t14.5 -2t12.5 -2q14 -2 18 -5t4 -11q0 -5 -0.5 -7t-2.5 -3.5t-7 -1.5q-2 0 -22 2q-37 4 -42 6q-7 3 -8.5 11.5t3.5 13.5z" />
    <glyph glyph-name="semicolon" unicode=";" horiz-adv-x="474" 
d="M223 457q11 3 13 1t2 -14q0 -15 -8 -15q-7 0 -29 -11q-18 -8 -20 -8q-3 0 -8 6q-7 9 -7 13q0 2 21.5 13t35.5 15zM310 428q4 7 9 7q8 0 34 -26q17 -17 17 -23q0 -3 -3 -6q-5 -7 -9 -7t-29 22q-21 18 -21 26q0 1 2 7zM86 356q16 23 20 23q3 0 9 -6q7 -7 7 -10t-12 -21
q-14 -18 -17 -28q-2 -5 -13.5 -1.5t-11.5 9.5q0 7 18 34zM394 311q8 4 12 4q5 0 11.5 -22t6.5 -39q0 -10 -2.5 -13t-12.5 -3q-11 0 -13.5 5t-4.5 30q-1 8 -1 20q0 15 4 18zM55 225q-3 14 -1.5 16.5t12.5 0.5q9 -1 12.5 -4.5t5.5 -14.5q4 -19 10 -29q6 -13 0 -20
q-8 -8 -11 -8q-5 0 -15 21t-13 38zM364 171q7 10 18 -2q3 -3 3 -7q0 -15 -39 -35l-24 -12l-6 12q-3 6 -3 9q0 6 23 17q24 12 28 18zM156 120q0 15 12 15q1 0 11 -2q4 -1 10 -2t14.5 -2t12.5 -2q14 -2 18 -5t4 -11t-3.5 -10t-15.5 -2q-23 0 -43 6.5t-20 14.5z" />
    <glyph glyph-name="question" unicode="?" horiz-adv-x="509" 
d="M404 699q2 3 14 3h1q9 0 11.5 -15.5t12.5 -125.5q1 -4 1 -6q15 -174 15 -315q0 -130 -12 -296l-3 -49l-15 -1l-15 -2l3 33q14 136 14 328q0 159 -23 381q-5 43 -5 59q0 6 1 6zM225 457q11 3 13 1t2 -14q0 -15 -8 -15q-7 0 -29 -11q-18 -8 -20 -8q-3 0 -8 6q-7 9 -7 13
q0 2 21.5 13t35.5 15zM312 428q4 7 9 7q8 0 34 -26q17 -17 17 -23q0 -3 -3 -6q-5 -7 -9 -7t-29 22q-21 18 -21 26q0 1 2 7zM88 356q16 23 20 23q3 0 9 -6q7 -7 7 -10t-12 -21q-14 -18 -17 -28q-2 -5 -13.5 -1.5t-11.5 9.5q0 7 18 34zM396 311q8 4 12 4q5 0 11.5 -22t6.5 -39
q0 -10 -2.5 -13t-12.5 -3q-11 0 -13.5 5t-4.5 30q-1 8 -1 20q0 15 4 18zM57 225q-3 14 -1.5 16.5t12.5 0.5q9 -1 12.5 -4.5t5.5 -14.5q4 -19 10 -29q6 -13 0 -20q-8 -8 -11 -8q-5 0 -15 21t-13 38zM366 171q7 10 18 -2q3 -3 3 -7q0 -15 -39 -35l-24 -12l-6 12q-3 6 -3 9
q0 6 23 17q24 12 28 18zM158 120q0 15 12 15q1 0 11 -2q4 -1 10 -2t14.5 -2t12.5 -2q14 -2 18 -5t4 -11t-3.5 -10t-15.5 -2q-23 0 -43 6.5t-20 14.5z" />
    <glyph glyph-name="b" unicode="B" horiz-adv-x="506" 
d="M138 666l239 35q3 0 6.5 -4.5t5 -11t1.5 -12.5t-2 -8q-3 -2 -59 -10t-113 -15.5t-60 -8.5q-4 -1 -10 -1q-8 0 -9 17q-2 18 1 19zM203 475q25 9 44 9q17 0 42 -6q71 -15 115 -62.5t49 -114.5v-12q0 -65 -46 -111q-35 -35 -78 -49.5t-111 -14.5q-50 0 -63.5 2.5t-13.5 12.5
q0 1 0.5 3t0.5 4l2 16h63q99 0 149 32q60 40 60 107q0 56 -40.5 100.5t-105.5 49.5q-9 1 -24 1q-40 0 -67 -24q-45 -41 -64 -128.5t-19 -259.5v-121h-41v87q0 309 67 414q31 48 81 65z" />
    <glyph glyph-name="b" unicode="b" horiz-adv-x="506" 
d="M138 666l239 35q3 0 6.5 -4.5t5 -11t1.5 -12.5t-2 -8q-3 -2 -59 -10t-113 -15.5t-60 -8.5q-4 -1 -10 -1q-8 0 -9 17q-2 18 1 19zM203 475q25 9 44 9q17 0 42 -6q71 -15 115 -62.5t49 -114.5v-12q0 -65 -46 -111q-35 -35 -78 -49.5t-111 -14.5q-50 0 -63.5 2.5t-13.5 12.5
q0 1 0.5 3t0.5 4l2 16h63q99 0 149 32q60 40 60 107q0 56 -40.5 100.5t-105.5 49.5q-9 1 -24 1q-40 0 -67 -24q-45 -41 -64 -128.5t-19 -259.5v-121h-41v87q0 309 67 414q31 48 81 65z" />
    <glyph glyph-name="D" unicode="D" horiz-adv-x="541" 
d="M276 771q8 9 22 9t21 -10q5 -9 5 -20q0 -15 -8 -23q-8 -9 -15 -9t-20 10q-13 11 -13 25q0 10 8 18zM131 752q9 6 18 6q12 0 20.5 -8.5t8.5 -20.5q0 -7 -3 -15q-9 -16 -23 -16q-13 0 -23.5 10t-10.5 22q0 13 13 22zM428 665q0 11 2.5 13.5t15.5 2.5q18 0 18 -5
q0 -7 21 -200q4 -42 4 -70q0 -72 -12 -119q-39 -165 -191 -172h-19q-96 0 -162 62q-51 48 -51 111q0 25 9 49q10 26 40.5 53.5t67.5 43.5q70 30 153 30h9q13 -1 17.5 -1.5t8 -2.5t4 -4.5t0.5 -8.5v-16l-51 -5q-128 -14 -180 -59q-39 -35 -39 -81q0 -37 26 -70t73 -51
q32 -13 81 -13q48 0 75 13q93 41 103 220q1 11 1 36q0 40 -3 62q-21 161 -21 182zM105 603q2 2 118 18.5t125 16.5q4 0 6 -19l2 -18l-107 -14q-119 -16 -123 -17q-11 -2 -15 0.5t-6 13.5q-3 16 0 19z" />
    <glyph glyph-name="E" unicode="E" horiz-adv-x="611" 
d="M54 450q0 4 11 9.5t18 5.5t7 -6q0 -9 41.5 -91t63.5 -117q28 -47 62 -88l33 -41q-16 -18 -25 -26l-21 24q-92 105 -165 268q-25 55 -25 62zM338 446q16 2 18 3q4 0 19 -40q20 -56 63 -123.5t92 -118.5q27 -29 27 -38q0 -8 -15 -17q-4 -2 -5 -2q-6 0 -33 28
q-69 75 -115 154q-19 33 -37.5 75.5t-22.5 59.5q-2 11 -0.5 14t9.5 5z" />
    <glyph glyph-name="E" unicode="e" horiz-adv-x="611" 
d="M54 450q0 4 11 9.5t18 5.5t7 -6q0 -9 41.5 -91t63.5 -117q28 -47 62 -88l33 -41q-16 -18 -25 -26l-21 24q-92 105 -165 268q-25 55 -25 62zM338 446q16 2 18 3q4 0 19 -40q20 -56 63 -123.5t92 -118.5q27 -29 27 -38q0 -8 -15 -17q-4 -2 -5 -2q-6 0 -33 28
q-69 75 -115 154q-19 33 -37.5 75.5t-22.5 59.5q-2 11 -0.5 14t9.5 5z" />
    <glyph glyph-name="F" unicode="F" horiz-adv-x="538" 
d="M235 684q14 12 20 12t17 -11q10 -11 10 -24q0 -12 -8 -20.5t-20 -8.5q-9 0 -16 4q-17 8 -17 23q0 13 14 25zM433 666q0 10 3 12.5t15 2.5q18 0 18 -5q0 -6 9 -76q9 -72 9 -174q0 -101 -9 -137q-22 -86 -68.5 -128t-123.5 -46h-19q-96 0 -162 62q-51 48 -51 111q0 25 9 49
q10 26 40.5 53.5t67.5 43.5q70 30 153 30h9q13 -1 17.5 -1.5t8 -2.5t4 -4.5t0.5 -8.5v-16l-51 -5q-128 -14 -180 -59q-39 -35 -39 -81q0 -37 26 -70t73 -51q32 -13 81 -13q48 0 75 13q68 31 94 133q8 37 8 121q0 89 -9 163q-8 61 -8 84z" />
    <glyph glyph-name="G" unicode="G" horiz-adv-x="500" 
d="M313 766q11 8 24 8q14 0 21 -10q5 -9 5 -20q0 -14 -8 -22q-7 -9 -17 -9t-23 10q-13 11 -13 23t11 20zM160 741q11 11 25 11q11 0 19 -7.5t8 -19.5q0 -8 -4 -16q-8 -17 -23 -17q-13 0 -25 12q-13 13 -13 19q0 5 13 18zM139 597q2 2 116 19t125 17h1q5 -2 7 -19l2 -18
l-108 -15q-119 -16 -123 -17q-11 -2 -14.5 0.5t-5.5 13.5q-3 16 0 19zM54 453q0 2 10.5 7.5t16.5 5.5q3 0 4 -1q5 -5 44 -103q71 -178 101 -207q16 -15 38 -15q14 0 21 4t20 18q27 30 52.5 98.5t40.5 151.5q5 32 9.5 43t12.5 11q2 0 14 -4q7 -3 7 -14q0 -14 -10 -63
q-58 -283 -167 -283q-6 0 -18 2q-31 7 -50 27t-45 75q-17 34 -59 137t-42 110z" />
    <glyph glyph-name="H" unicode="H" horiz-adv-x="540" 
d="M258 684q14 12 20 12t17 -11q10 -11 10 -24q0 -12 -8 -20.5t-20 -8.5q-9 0 -16 4q-17 8 -17 23q0 13 14 25zM203 419q33 48 69 48q34 0 62 -42q13 -20 52 -114q62 -151 93 -176q7 -6 7 -12q0 -7 -8 -15t-12 -8q-8 0 -28 27q-41 56 -85 165q-31 76 -48.5 106t-32.5 30
q-10 0 -23 -13q-23 -22 -65.5 -101t-78.5 -168q-10 -25 -14.5 -32.5t-10.5 -7.5q-4 0 -6 1q-14 4 -17 7q-1 1 -1 3q0 22 57.5 140.5t89.5 161.5z" />
    <glyph glyph-name="J" unicode="J" horiz-adv-x="447" 
d="M132 763q13 10 19 10q7 0 16 -4q14 -5 14 -25q0 -32 -25 -32q-11 0 -24 11t-13 21q0 8 13 19zM349 649l-3 53h17q17 0 21 -11q1 -5 9 -135q3 -60 3 -112q0 -176 -36 -251q-16 -32 -63.5 -55t-107.5 -27q-3 0 -11 -0.5t-12 -0.5q-32 0 -65 4t-37 8q-4 2 2 17q4 9 8 11.5
t15 1.5q39 -3 71 -3q108 0 152 44q14 14 19.5 25t11.5 38q10 40 10 191q0 163 -4 202zM150 624q99 15 105 15q7 0 10 -7q3 -8 3 -15q0 -13 -11 -15t-100.5 -15.5t-94.5 -13.5q-2 0 -5 13t-3 20q0 3 1 4q42 6 95 14z" />
    <glyph glyph-name="k" unicode="K" horiz-adv-x="502" 
d="M84 480q2 0 38 -88q78 -199 111 -228q17 -14 36 -14q22 0 40 19q56 61 89 228q12 60 14 67q3 11 14 11q9 -1 13 -2t6.5 -4.5t2.5 -10.5q0 -8 -10 -60q-39 -189 -104 -256q-31 -32 -62 -32q-7 0 -23 4q-33 10 -54.5 36.5t-53.5 98.5q-17 37 -52 125t-35 93q0 1 14 7t16 6z
" />
    <glyph glyph-name="k" unicode="k" horiz-adv-x="502" 
d="M84 480q2 0 38 -88q78 -199 111 -228q17 -14 36 -14q22 0 40 19q56 61 89 228q12 60 14 67q3 11 14 11q9 -1 13 -2t6.5 -4.5t2.5 -10.5q0 -8 -10 -60q-39 -189 -104 -256q-31 -32 -62 -32q-7 0 -23 4q-33 10 -54.5 36.5t-53.5 98.5q-17 37 -52 125t-35 93q0 1 14 7t16 6z
" />
    <glyph glyph-name="l" unicode="L" horiz-adv-x="528" 
d="M231 472q32 8 54 8q23 0 52 -8q91 -26 91 -143q0 -65 -28 -150q-13 -40 -13 -45q0 -4 6 -4q10 -1 34.5 -22t32.5 -36q11 -21 11 -53q0 -34 -11 -62q-9 -24 -28.5 -55t-27.5 -33q-5 -2 -17 7l-12 10l16 24q42 61 42 109q0 22 -3 29t-19 23q-20 19 -45 28q-21 7 -28 11
q-1 0 -1 3q0 7 13 39q40 95 40 178q0 44 -13 66q-14 23 -33 32.5t-53 9.5h-17q-77 -4 -125 -52q-57 -57 -57 -140q0 -16 3 -31q4 -19 22 -38.5t35 -22.5q12 -2 15 -6t3 -17v-18l-21 3q-42 6 -68.5 44t-26.5 91q0 17 3 33q11 70 58.5 120.5t115.5 67.5z" />
    <glyph glyph-name="l" unicode="l" horiz-adv-x="528" 
d="M231 472q32 8 54 8q23 0 52 -8q91 -26 91 -143q0 -65 -28 -150q-13 -40 -13 -45q0 -4 6 -4q10 -1 34.5 -22t32.5 -36q11 -21 11 -53q0 -34 -11 -62q-9 -24 -28.5 -55t-27.5 -33q-5 -2 -17 7l-12 10l16 24q42 61 42 109q0 22 -3 29t-19 23q-20 19 -45 28q-21 7 -28 11
q-1 0 -1 3q0 7 13 39q40 95 40 178q0 44 -13 66q-14 23 -33 32.5t-53 9.5h-17q-77 -4 -125 -52q-57 -57 -57 -140q0 -16 3 -31q4 -19 22 -38.5t35 -22.5q12 -2 15 -6t3 -17v-18l-21 3q-42 6 -68.5 44t-26.5 91q0 17 3 33q11 70 58.5 120.5t115.5 67.5z" />
    <glyph glyph-name="m" unicode="M" horiz-adv-x="441" 
d="M227 604q33 4 58 4q28 0 51 -2l48 -3v-38l-74 2h-22q-73 0 -114 -16t-67 -53l-17 -24l2 -158q1 -29 3 -135.5t3 -144.5l3 -123h-37v46q0 70 -8 264q-6 156 -6 199q0 35 3 50q10 51 58 87t116 45z" />
    <glyph glyph-name="m" unicode="m" horiz-adv-x="441" 
d="M227 604q33 4 58 4q28 0 51 -2l48 -3v-38l-74 2h-22q-73 0 -114 -16t-67 -53l-17 -24l2 -158q1 -29 3 -135.5t3 -144.5l3 -123h-37v46q0 70 -8 264q-6 156 -6 199q0 35 3 50q10 51 58 87t116 45z" />
    <glyph glyph-name="N" unicode="N" horiz-adv-x="848" 
d="M147 475q6 3 14 3q22 0 42 -14q39 -28 107 -184q33 -75 51.5 -105t30.5 -30h1q8 0 11 14t19 112q19 120 36.5 163.5t48.5 43.5q8 0 18 -3q28 -8 50.5 -40.5t54.5 -112.5q41 -104 81 -145q15 -16 37.5 -28.5t36.5 -13.5q8 0 8 -18q0 -12 -2 -15t-12 -3q-15 0 -47 16
q-43 21 -73.5 65.5t-71.5 146.5q-28 66 -42 86q-18 26 -36 26q-7 0 -10 -5q-20 -29 -41 -176q-14 -86 -21 -111t-22 -35q-10 -7 -23 -7q-48 0 -99 119q-92 215 -129 215q-20 0 -41.5 -82.5t-28.5 -191.5l-3 -51h-20q-19 0 -19 7q0 6 1 10q1 7 6 61q8 112 32.5 191.5
t54.5 91.5z" />
    <glyph glyph-name="p" unicode="P" horiz-adv-x="500" 
d="M192 473q16 6 50 6h14q42 -1 78 -18q63 -29 95 -90q15 -29 17 -73q0 -5 0.5 -13.5t0.5 -11.5q0 -20 -15 -53q-52 -105 -215 -105h-14l-63 2v36l52 -1h19q114 0 165 54q35 37 35 82q0 25 -11 55q-9 25 -33.5 49.5t-52.5 37.5q-27 12 -63 12q-39 0 -61 -13
q-52 -30 -75.5 -126.5t-23.5 -284.5v-110h-37l3 156q3 163 10 200q33 174 125 209z" />
    <glyph glyph-name="p" unicode="p" horiz-adv-x="500" 
d="M192 473q16 6 50 6h14q42 -1 78 -18q63 -29 95 -90q15 -29 17 -73q0 -5 0.5 -13.5t0.5 -11.5q0 -20 -15 -53q-52 -105 -215 -105h-14l-63 2v36l52 -1h19q114 0 165 54q35 37 35 82q0 25 -11 55q-9 25 -33.5 49.5t-52.5 37.5q-27 12 -63 12q-39 0 -61 -13
q-52 -30 -75.5 -126.5t-23.5 -284.5v-110h-37l3 156q3 163 10 200q33 174 125 209z" />
    <glyph glyph-name="q" unicode="Q" horiz-adv-x="440" 
d="M274 696q7 5 23 5q18 0 24 -7q4 -4 4 -16q0 -24 -11 -33q-4 -3 -12 -3q-23 0 -32 14q-5 10 -5 20q0 16 9 20zM121 673q11 8 24 8q12 0 19.5 -7.5t7.5 -20.5q0 -15 -7 -24t-18 -9q-13 0 -24 10q-13 11 -13 23t11 20zM226 562q28 4 75 4h19h63v-38l-75 -1q-80 -1 -117 -10
t-66 -35q-22 -20 -26 -30q-9 -23 -9 -102q0 -18 2 -182l3 -265h-37v36q0 53 -5 256q-3 117 -3 175t3 68q13 49 59.5 82.5t113.5 41.5z" />
    <glyph glyph-name="q" unicode="q" horiz-adv-x="440" 
d="M274 696q7 5 23 5q18 0 24 -7q4 -4 4 -16q0 -24 -11 -33q-4 -3 -12 -3q-23 0 -32 14q-5 10 -5 20q0 16 9 20zM121 673q11 8 24 8q12 0 19.5 -7.5t7.5 -20.5q0 -15 -7 -24t-18 -9q-13 0 -24 10q-13 11 -13 23t11 20zM226 562q28 4 75 4h19h63v-38l-75 -1q-80 -1 -117 -10
t-66 -35q-22 -20 -26 -30q-9 -23 -9 -102q0 -18 2 -182l3 -265h-37v36q0 53 -5 256q-3 117 -3 175t3 68q13 49 59.5 82.5t113.5 41.5z" />
    <glyph glyph-name="r" unicode="R" horiz-adv-x="484" 
d="M295 437q-24 12 -42 12q-20 0 -56.5 -20t-55.5 -42q-27 -30 -37 -54.5t-10 -59.5q0 -27 2.5 -36.5t12.5 -24.5q16 -21 44 -37q29 -16 72 -18h15q50 0 89 17.5t54 46.5q9 19 9 51q0 38 -12 70q-11 29 -35.5 56.5t-49.5 38.5zM190 470q32 16 65 16q30 0 56 -13
q47 -22 81.5 -75t37.5 -108q0 -4 0.5 -10t0.5 -9q0 -51 -27 -85q-22 -30 -71 -50.5t-97 -20.5q-12 0 -18 1q-75 7 -119.5 51.5t-44.5 109.5q0 9 2 27q8 47 46 94.5t88 71.5z" />
    <glyph glyph-name="r" unicode="r" horiz-adv-x="484" 
d="M295 437q-24 12 -42 12q-20 0 -56.5 -20t-55.5 -42q-27 -30 -37 -54.5t-10 -59.5q0 -27 2.5 -36.5t12.5 -24.5q16 -21 44 -37q29 -16 72 -18h15q50 0 89 17.5t54 46.5q9 19 9 51q0 38 -12 70q-11 29 -35.5 56.5t-49.5 38.5zM190 470q32 16 65 16q30 0 56 -13
q47 -22 81.5 -75t37.5 -108q0 -4 0.5 -10t0.5 -9q0 -51 -27 -85q-22 -30 -71 -50.5t-97 -20.5q-12 0 -18 1q-75 7 -119.5 51.5t-44.5 109.5q0 9 2 27q8 47 46 94.5t88 71.5z" />
    <glyph glyph-name="s" unicode="S" horiz-adv-x="441" 
d="M341 668l-3 24h18q17 0 21 -12q1 -5 9 -134q4 -96 4 -113q0 -28 -4 -88q-7 -97 -22.5 -139.5t-51.5 -65.5q-54 -35 -133 -39q-3 0 -9 -0.5t-10 -0.5q-30 0 -65 4t-39 8q-2 2 3 16q4 9 8 12t15 2q40 -3 72 -3q62 0 92 10q62 20 82 70t20 189q0 56 -1 88q-4 157 -6 172z
" />
    <glyph glyph-name="s" unicode="s" horiz-adv-x="441" 
d="M341 668l-3 24h18q17 0 21 -12q1 -5 9 -134q4 -96 4 -113q0 -28 -4 -88q-7 -97 -22.5 -139.5t-51.5 -65.5q-54 -35 -133 -39q-3 0 -9 -0.5t-10 -0.5q-30 0 -65 4t-39 8q-2 2 3 16q4 9 8 12t15 2q40 -3 72 -3q62 0 92 10q62 20 82 70t20 189q0 56 -1 88q-4 157 -6 172z
" />
    <glyph glyph-name="T" unicode="T" horiz-adv-x="537" 
d="M283 681q10 6 20 6q13 0 22 -8t9 -21q0 -5 -1 -7q-4 -16 -11 -21q-4 -4 -13 -4q-24 0 -31 14q-5 10 -5 19q0 15 10 22zM428 672q0 10 2.5 12.5t14.5 2.5h18l6 -48q16 -128 16 -210q0 -98 -25 -177q-26 -83 -95 -114q-39 -18 -93 -18q-67 0 -119 26q-24 12 -50 39t-36 50
q-13 29 -13 57q0 77 84 127t176 50h14q13 -1 17.5 -1.5t8 -2.5t4 -4.5t0.5 -8.5v-15l-49 -6q-125 -14 -177 -59q-39 -35 -39 -80t37.5 -82.5t100.5 -49.5q24 -4 39 -4q76 0 116 37q12 11 24.5 31t14.5 31q1 9 11 48q9 36 9 124q0 89 -9 161q-8 61 -8 84zM135 658q11 8 19 8
q6 0 17 -6q9 -4 9 -20v-8q-1 -15 -3.5 -19.5t-10.5 -6.5q-2 -1 -6 -1q-13 0 -23.5 11.5t-10.5 23.5q0 13 9 18z" />
    <glyph glyph-name="V" unicode="V" horiz-adv-x="540" 
d="M195 763q13 10 19 10q7 0 16 -4q8 -3 10.5 -7.5t2.5 -17.5q0 -32 -25 -32q-11 0 -24 11t-13 21q0 7 14 19zM435 666q0 10 3 12.5t15 2.5q18 0 18 -5q0 -7 9 -77q10 -85 10 -182q0 -95 -9 -130q-23 -86 -69.5 -128.5t-124.5 -46.5q-4 0 -10 -0.5t-9 -0.5q-97 0 -163 63
q-52 49 -52 109q0 57 48 102q77 72 215 75l49 1v-31l-54 -7q-71 -7 -111.5 -20.5t-69.5 -39.5q-37 -34 -37 -79q0 -38 27 -71.5t73 -50.5q34 -14 81 -14q46 0 76 14q68 30 94 133q8 37 8 122q0 91 -9 164q-8 61 -8 85zM230 626q87 12 105 12q16 0 19 -7q4 -12 4 -14
q0 -9 -20 -13.5t-98 -15.5q-116 -16 -127 -16q-10 0 -10 18q0 13 3.5 16t19.5 5q40 7 104 15z" />
    <glyph glyph-name="W" unicode="W" horiz-adv-x="442" 
d="M112 793q9 6 18 6q12 0 21 -8.5t9 -20.5q0 -5 -4 -15q-7 -16 -24 -16q-13 0 -24 11q-10 10 -10 21q0 14 14 22zM250 790q0 7 5.5 8.5t25.5 1.5q21 0 26 -2t5 -9q0 -10 -8.5 -20t-17.5 -10q-10 0 -23 11.5t-13 19.5zM207 663q122 16 123 16h1q4 -1 6 -19l2 -19l-108 -14
q-122 -17 -124 -17q-11 -2 -14.5 0t-5.5 14q-4 16 -1 19q4 4 121 20zM223 546q43 5 59 5q18 0 55 -3l48 -3v-38l-74 2h-24q-74 0 -116 -15t-66 -50l-17 -24q1 -86 3.5 -258t4.5 -258h-37v40q0 4 -4.5 182.5t-4.5 243.5q0 35 1 40q6 52 53.5 89.5t118.5 46.5z" />
    <glyph glyph-name="x" unicode="X" horiz-adv-x="503" 
d="M326 702q10 6 20 6q13 0 22.5 -9t9.5 -21t-9 -22q-10 -11 -25 -8q-16 4 -22 13q-5 10 -5 20q0 17 9 21zM174 678q11 8 24 8q26 0 26 -28q0 -32 -24 -32q-11 0 -24 10q-13 11 -13 23q0 11 11 19zM54 469q0 2 10.5 7.5t16.5 5.5q3 0 4 -1q4 -4 44 -104q38 -95 66 -151
q21 -42 36.5 -56t39.5 -14q19 0 38 21q27 30 52.5 99t40.5 152l10 52h17q18 0 18 -6q0 -15 -12.5 -74.5t-22.5 -92.5q-30 -98 -64.5 -144t-78.5 -46q-11 0 -25 3q-35 10 -65.5 58.5t-85.5 186.5q-39 96 -39 104z" />
    <glyph glyph-name="x" unicode="x" horiz-adv-x="503" 
d="M326 702q10 6 20 6q13 0 22.5 -9t9.5 -21t-9 -22q-10 -11 -25 -8q-16 4 -22 13q-5 10 -5 20q0 17 9 21zM174 678q11 8 24 8q26 0 26 -28q0 -32 -24 -32q-11 0 -24 10q-13 11 -13 23q0 11 11 19zM54 469q0 2 10.5 7.5t16.5 5.5q3 0 4 -1q4 -4 44 -104q38 -95 66 -151
q21 -42 36.5 -56t39.5 -14q19 0 38 21q27 30 52.5 99t40.5 152l10 52h17q18 0 18 -6q0 -15 -12.5 -74.5t-22.5 -92.5q-30 -98 -64.5 -144t-78.5 -46q-11 0 -25 3q-35 10 -65.5 58.5t-85.5 186.5q-39 96 -39 104z" />
    <glyph glyph-name="y" unicode="Y" horiz-adv-x="486" 
d="M227 689q7 3 14 3q12 0 20 -8.5t8 -21.5q0 -14 -9 -21.5t-22 -7.5q-20 0 -28 15q-2 6 -2 10q0 22 19 31zM300 435q-18 9 -47 9q-57 -1 -109.5 -57t-52.5 -116q0 -10 1 -15q9 -56 67 -85q23 -11 36 -14t43 -3q55 1 97.5 22t53.5 55q5 17 5 35q0 48 -18 86
q-12 25 -33.5 48.5t-42.5 34.5zM223 481q7 3 22 3q39 0 71 -15q48 -24 82.5 -82.5t34.5 -115.5q0 -15 -3 -28q-10 -46 -39.5 -74t-86.5 -45q-30 -9 -65 -9q-48 0 -85 15q-47 18 -73.5 57t-26.5 87q0 41 19 80q20 39 63.5 76t86.5 51z" />
    <glyph glyph-name="y" unicode="y" horiz-adv-x="486" 
d="M227 689q7 3 14 3q12 0 20 -8.5t8 -21.5q0 -14 -9 -21.5t-22 -7.5q-20 0 -28 15q-2 6 -2 10q0 22 19 31zM300 435q-18 9 -47 9q-57 -1 -109.5 -57t-52.5 -116q0 -10 1 -15q9 -56 67 -85q23 -11 36 -14t43 -3q55 1 97.5 22t53.5 55q5 17 5 35q0 48 -18 86
q-12 25 -33.5 48.5t-42.5 34.5zM223 481q7 3 22 3q39 0 71 -15q48 -24 82.5 -82.5t34.5 -115.5q0 -15 -3 -28q-10 -46 -39.5 -74t-86.5 -45q-30 -9 -65 -9q-48 0 -85 15q-47 18 -73.5 57t-26.5 87q0 41 19 80q20 39 63.5 76t86.5 51z" />
    <glyph glyph-name="z" unicode="Z" horiz-adv-x="441" 
d="M341 673l-3 24h18q17 0 21 -11q1 -4 9 -134q4 -92 4 -112q0 -29 -4 -89q-7 -98 -22.5 -140.5t-51.5 -65.5q-54 -35 -133 -39q-3 0 -9 -0.5t-10 -0.5q-30 0 -65 4t-39 8q-2 2 3 17q4 9 8 11.5t15 1.5q25 -2 67 -2q66 0 97 10q62 20 82 69.5t20 188.5q0 56 -1 88
q-4 157 -6 172zM151 679q92 12 101 12q8 0 12 -7q3 -9 3 -14q0 -14 -17 -17q-150 -23 -182 -23q-7 0 -7 18q0 17 1 18l11 2q11 1 35 4.5t43 6.5z" />
    <glyph glyph-name="z" unicode="z" horiz-adv-x="441" 
d="M341 673l-3 24h18q17 0 21 -11q1 -4 9 -134q4 -92 4 -112q0 -29 -4 -89q-7 -98 -22.5 -140.5t-51.5 -65.5q-54 -35 -133 -39q-3 0 -9 -0.5t-10 -0.5q-30 0 -65 4t-39 8q-2 2 3 17q4 9 8 11.5t15 1.5q25 -2 67 -2q66 0 97 10q62 20 82 69.5t20 188.5q0 56 -1 88
q-4 157 -6 172zM151 679q92 12 101 12q8 0 12 -7q3 -9 3 -14q0 -14 -17 -17q-150 -23 -182 -23q-7 0 -7 18q0 17 1 18l11 2q11 1 35 4.5t43 6.5z" />
    <glyph glyph-name="d" unicode="d" horiz-adv-x="535" 
d="M95 661q234 35 240 35q4 0 7.5 -9.5t3.5 -18.5q0 -6 -2 -8q-4 -3 -110 -18t-124 -17q-5 -1 -11 -1t-6 17q0 18 2 20zM430 671q0 10 3 12.5t15 2.5q18 0 18 -5q0 -7 9 -77q10 -85 10 -182q0 -96 -9 -130q-29 -116 -111 -157q-31 -16 -77 -18q-4 0 -10 -0.5t-9 -0.5
q-97 0 -163 63q-52 49 -52 109q0 58 50 105q75 69 207 72l49 1v-31l-52 -6q-70 -7 -107.5 -20t-67.5 -40q-22 -18 -31 -37q-8 -19 -8 -43q0 -25 7 -40q18 -43 68 -69t106 -26q75 0 115 43q32 34 49 104q8 37 8 122q0 91 -9 164q-8 61 -8 84z" />
    <glyph glyph-name="f" unicode="f" horiz-adv-x="540" 
d="M75 692q5 18 12 18q5 0 8 -1q13 -3 17 -7q1 -1 1 -3q0 -11 -9 -52q-10 -49 -10 -171q0 -101 7 -143.5t32 -91.5q47 -93 149 -93h13q75 4 117 49q36 40 36 88q0 57 -52 91q-29 19 -60.5 26t-90.5 7h-65l-4 15q-4 14 0 18t68 4q66 0 87 -4q66 -13 107 -49q49 -46 49 -110
q0 -47 -27 -88t-77 -64q-51 -24 -101 -24q-84 0 -144 62q-68 72 -84 234q-3 29 -3 64q0 140 24 225z" />
    <glyph glyph-name="g" unicode="g" horiz-adv-x="503" 
d="M142 666q1 0 119.5 17.5t119.5 17.5q5 1 9 -8.5t4 -18.5q0 -7 -2 -9q-4 -2 -58.5 -10t-111.5 -15.5t-60 -8.5q-5 -1 -11 -1q-9 0 -10 17q-2 18 1 19zM54 459q0 4 11.5 9t16.5 5t27 -56t52 -129t48 -101q28 -44 60 -44q1 0 3.5 0.5t3.5 0.5q16 2 25.5 10t24.5 32
q25 38 50 115t33 140q3 20 5.5 23.5t15.5 3.5q12 0 15 -2.5t3 -13.5q0 -10 -14 -76q-61 -270 -163 -270q-20 0 -44 11q-36 17 -78 107q-18 40 -56.5 134.5t-38.5 100.5z" />
    <glyph glyph-name="h" unicode="h" horiz-adv-x="543" 
d="M240 466q20 13 32 13q14 0 31 -12q21 -14 38 -43.5t47 -104.5q60 -148 94 -177q7 -7 7 -12q0 -6 -9 -15t-14 -9q-6 0 -32.5 38t-41.5 68q-16 35 -42 98q-28 69 -45 97.5t-32 28.5q-11 0 -23 -12q-23 -22 -65.5 -101.5t-78.5 -168.5q-17 -43 -29 -43q-5 0 -15 7q-6 4 -6 9
t19 52q45 106 92 187.5t73 99.5z" />
    <glyph glyph-name="j" unicode="j" horiz-adv-x="442" 
d="M342 688l-3 24h18q17 0 21 -11q1 -4 9 -135q3 -63 3 -116q0 -178 -36 -250q-18 -37 -75 -60.5t-127 -23.5q-27 0 -60 5q-36 6 -36 13q0 4 1 7q4 14 8 18q1 1 13 1q22 0 36 -2q27 -3 48 -3q39 0 85 13q62 18 82 68t20 191q0 55 -1 88q-4 158 -6 173zM187 694q12 12 20 12
q6 0 18 -12q10 -11 10 -24q0 -11 -8 -19.5t-20 -8.5q-8 0 -16 4q-17 8 -17 23q0 13 13 25z" />
    <glyph glyph-name="n" unicode="n" horiz-adv-x="503" 
d="M241 480q15 3 41 3h14q80 -6 117.5 -88t37.5 -252q0 -61 -2 -95q-6 -124 -6 -129v-7.5t-1 -5t-3 -3t-5 -0.5q-1 0 -4.5 0.5t-5.5 0.5q-9 1 -14 3t-4 5q0 1 4 163q1 34 1 90q0 132 -25 199q-9 26 -26.5 47t-34.5 28q-11 5 -37 5q-53 0 -89 -17q-48 -24 -77.5 -72
t-29.5 -102q0 -16 3 -32q4 -19 20.5 -37.5t34.5 -23.5q14 -4 17 -8t3 -16v-18l-21 3q-42 6 -68.5 44t-26.5 91q0 16 3 33q12 72 63.5 125.5t120.5 65.5z" />
    <glyph glyph-name="t" unicode="t" horiz-adv-x="539" 
d="M432 663l-4 24h19h5q12 0 16 -13.5t12 -87.5q8 -78 8 -153q0 -88 -9 -130q-36 -172 -191 -182q-4 0 -11 -0.5t-11 -0.5q-59 0 -114 28q-60 31 -86 89q-12 25 -12 46q0 2 0.5 7.5t0.5 9.5q5 72 73.5 117t184.5 52l50 3v-37l-47 -4q-137 -11 -195 -70q-30 -31 -30 -70
q0 -38 29 -72t80 -51q27 -9 75 -9q37 0 59 6q36 10 63.5 43.5t41.5 82.5q11 41 11 128q0 117 -18 244z" />
    <glyph glyph-name="v" unicode="v" horiz-adv-x="539" 
d="M76 709q4 14 6.5 16t12.5 0q15 -4 18 -7q1 -1 1 -3q0 -11 -9 -52q-11 -54 -11 -170q0 -80 2 -106t9 -52q23 -83 66 -126t105 -43q3 0 9 0.5t9 0.5q75 4 117 49q36 39 36 87q0 59 -49.5 92t-138.5 33q-19 0 -29 -1l-50 -2l-3 16q-4 14 0 18q3 3 65 5h20q116 0 178 -58
q45 -42 45 -103q0 -46 -27.5 -88t-75.5 -65q-47 -23 -99 -23q-59 0 -108 31t-76 87q-47 97 -47 241q0 66 11 149q7 52 13 74zM180 627q1 1 96 30t97 29q4 1 10.5 -10.5t6.5 -19.5q0 -3 -93.5 -32.5t-103.5 -29.5q-4 0 -9.5 10.5t-5.5 17.5q0 3 2 5z" />
    <glyph glyph-name="w" unicode="w" horiz-adv-x="439" 
d="M206 696q11 11 23 11q13 0 21 -9t8 -21q0 -18 -16 -25q-7 -4 -15 -4q-13 0 -21.5 8.5t-8.5 19.5t9 20zM59 475q57 107 228 107q14 0 48 -2l47 -3v-38l-70 2h-28q-76 0 -118.5 -17.5t-69.5 -60.5q-8 -13 -8 -78q0 -54 3 -204l3 -268h-36l-3 162q-2 88 -5 271v49q0 63 9 80
z" />
    <glyph glyph-name="nbsp" unicode="&#xa0;" 
 />
  </font>
</defs>
</svg>
